<svg width="62" height="71" viewBox="0 0 62 71" fill="none" xmlns="http://www.w3.org/2000/svg">
<g clip-path="url(#clip0_402_11)">
<path d="M40.3 6.65625C40.3 10.3324 36.1344 13.3125 31 13.3125C25.8656 13.3125 21.7 10.3324 21.7 6.65625C21.7 2.98006 25.8656 0 31 0C36.1344 0 40.3 2.98006 40.3 6.65625ZM29.45 48.8125V66.5625C29.45 69.017 26.6794 71 23.25 71C19.8206 71 17.05 69.017 17.05 66.5625V35.6248L11.5146 42.2256C9.75146 44.3195 5.94233 44.999 3.00702 43.7371C0.0716287 42.4752 -0.877863 39.7572 0.886037 37.6494L12.1772 24.2121C15.5388 20.2045 21.5838 17.75 28.1131 17.75H33.8869C40.4163 17.75 46.4613 20.2045 49.8325 24.2121L61.1088 37.6494C62.8719 39.7572 61.9225 42.4752 58.9969 43.7371C56.0519 44.999 52.2544 44.3195 50.4913 42.2256L44.95 35.6248V66.5625C44.95 69.017 42.1794 71 38.75 71C35.3206 71 32.55 69.017 32.55 66.5625V48.8125H29.45Z" fill="black"/>
</g>
<defs>
<clipPath id="clip0_402_11">
<rect width="62" height="71" fill="white"/>
</clipPath>
</defs>
</svg>
