<svg width="100" height="93" viewBox="0 0 100 93" fill="none" xmlns="http://www.w3.org/2000/svg">
<path d="M96.1789 46.5059C96.1789 70.3693 75.6561 90 49.9776 90C24.2992 90 3.77637 70.3693 3.77637 46.5059C3.77637 22.6425 24.2992 3.01178 49.9776 3.01178C75.6561 3.01178 96.1789 22.6425 96.1789 46.5059Z" fill="#6FAFB6" stroke="black" stroke-width="6"/>
<g clip-path="url(#clip0_121_55)">
<path d="M59.3 16.6562C59.3 20.3324 55.1344 23.3125 50 23.3125C44.8656 23.3125 40.7 20.3324 40.7 16.6562C40.7 12.9801 44.8656 10 50 10C55.1344 10 59.3 12.9801 59.3 16.6562ZM48.45 58.8125V76.5625C48.45 79.017 45.6794 81 42.25 81C38.8206 81 36.05 79.017 36.05 76.5625V45.6248L30.5146 52.2256C28.7515 54.3195 24.9423 54.999 22.007 53.7371C19.0716 52.4752 18.1221 49.7572 19.886 47.6494L31.1772 34.2121C34.5388 30.2045 40.5838 27.75 47.1131 27.75H52.8869C59.4163 27.75 65.4613 30.2045 68.8325 34.2121L80.1088 47.6494C81.8719 49.7572 80.9225 52.4752 77.9969 53.7371C75.0519 54.999 71.2544 54.3195 69.4913 52.2256L63.95 45.6248V76.5625C63.95 79.017 61.1794 81 57.75 81C54.3206 81 51.55 79.017 51.55 76.5625V58.8125H48.45Z" fill="black"/>
</g>
<defs>
<clipPath id="clip0_121_55">
<rect width="62" height="71" fill="white" transform="translate(19 10)"/>
</clipPath>
</defs>
</svg>
